<svg xmlns="http://www.w3.org/2000/svg" xmlns:xlink="http://www.w3.org/1999/xlink" preserveAspectRatio="xMidYMid" width="394" height="62" viewBox="0 0 394 62">
  <defs>
    <style>

      .cls-3 {
        fill: #ff8000;
      }

      .cls-4 {
        fill: #aaaaaa;
      }
    </style>
  </defs>
  <g id="group">
    <path d="M3.489,13.715 C2.943,14.467 2.669,15.054 2.669,15.478 C2.669,16.079 2.878,16.588 3.295,17.005 C3.711,17.422 4.207,17.630 4.780,17.630 C5.190,17.630 5.539,17.537 5.826,17.353 C6.113,17.169 6.468,16.776 6.892,16.174 C6.892,16.174 9.146,13.100 9.146,13.100 C9.146,13.100 11.380,16.174 11.380,16.174 C11.817,16.776 12.176,17.165 12.456,17.343 C12.736,17.520 13.088,17.609 13.512,17.609 C14.086,17.609 14.578,17.404 14.988,16.994 C15.397,16.584 15.602,16.086 15.602,15.498 C15.602,15.061 15.329,14.467 14.783,13.715 C14.783,13.715 12.548,10.620 12.548,10.620 C12.548,10.620 16.176,9.452 16.176,9.452 C17.023,9.165 17.587,8.847 17.867,8.499 C18.147,8.150 18.287,7.723 18.287,7.218 C18.287,6.644 18.086,6.152 17.683,5.742 C17.280,5.332 16.818,5.127 16.299,5.127 C15.999,5.127 15.520,5.237 14.865,5.455 C14.865,5.455 11.237,6.623 11.237,6.623 C11.237,6.623 11.237,2.811 11.237,2.811 C11.237,1.800 11.045,1.079 10.663,0.649 C10.280,0.218 9.774,0.003 9.146,0.003 C8.517,0.003 8.009,0.218 7.619,0.649 C7.230,1.079 7.035,1.800 7.035,2.811 C7.035,2.811 7.035,6.623 7.035,6.623 C7.035,6.623 3.407,5.455 3.407,5.455 C2.765,5.237 2.280,5.127 1.952,5.127 C1.446,5.127 0.992,5.336 0.589,5.752 C0.186,6.169 -0.016,6.664 -0.016,7.238 C-0.016,7.730 0.148,8.174 0.476,8.570 C0.708,8.885 1.255,9.179 2.116,9.452 C2.116,9.452 5.744,10.620 5.744,10.620 C5.744,10.620 3.489,13.715 3.489,13.715 Z" id="path-1" class="cls-3" fill-rule="evenodd"/>
    <path d="M392.549,54.076 C391.482,55.963 389.847,57.586 387.645,58.945 C385.441,60.304 382.957,60.984 380.191,60.984 C380.191,60.984 372.035,60.984 372.035,60.984 C370.300,60.984 369.064,60.650 368.326,59.982 C367.588,59.314 367.219,58.453 367.219,57.398 C367.219,56.320 367.588,55.447 368.326,54.779 C369.064,54.111 370.300,53.777 372.035,53.777 C372.035,53.777 379.980,53.777 379.980,53.777 C382.183,53.777 383.894,53.180 385.113,51.984 C386.332,50.789 386.941,49.277 386.941,47.449 C386.941,47.449 386.941,21.223 386.941,21.223 C386.941,21.223 372.246,21.223 372.246,21.223 C370.511,21.223 369.275,20.889 368.537,20.221 C367.799,19.553 367.430,18.680 367.430,17.602 C367.430,16.547 367.799,15.686 368.537,15.018 C369.275,14.350 370.511,14.016 372.246,14.016 C372.246,14.016 394.148,14.016 394.148,14.016 C394.148,14.016 394.148,47.449 394.148,47.449 C394.148,49.980 393.615,52.189 392.549,54.076 ZM381.281,0.340 C381.281,0.340 389.895,0.340 389.895,0.340 C389.895,0.340 389.895,7.969 389.895,7.969 C389.895,7.969 381.281,7.969 381.281,7.969 C381.281,7.969 381.281,0.340 381.281,0.340 ZM353.367,39.750 C354.093,40.430 354.457,41.297 354.457,42.352 C354.457,43.406 354.088,44.268 353.350,44.936 C352.611,45.604 351.375,45.938 349.641,45.938 C349.641,45.938 339.973,45.938 339.973,45.938 C338.238,45.938 337.002,45.604 336.264,44.936 C335.525,44.268 335.156,43.395 335.156,42.316 C335.156,41.262 335.525,40.400 336.264,39.732 C337.002,39.064 338.238,38.730 339.973,38.730 C339.973,38.730 342.785,38.730 342.785,38.730 C342.785,38.730 342.785,35.848 342.785,35.848 C342.785,35.848 323.203,35.848 323.203,35.848 C323.203,35.848 323.203,29.836 323.203,29.836 C323.203,29.836 340.465,0.445 340.465,0.445 C340.465,0.445 349.992,0.445 349.992,0.445 C349.992,0.445 349.992,28.641 349.992,28.641 C351.515,28.641 352.640,28.975 353.367,29.643 C354.093,30.311 354.457,31.172 354.457,32.227 C354.457,33.281 354.088,34.149 353.350,34.828 C352.611,35.508 351.492,35.848 349.992,35.848 C349.992,35.848 349.992,38.730 349.992,38.730 C351.515,38.730 352.640,39.070 353.367,39.750 ZM342.785,10.922 C342.785,10.922 332.344,28.641 332.344,28.641 C332.344,28.641 342.785,28.641 342.785,28.641 C342.785,28.641 342.785,10.922 342.785,10.922 ZM309.229,45.709 C305.841,46.635 302.988,47.098 300.668,47.098 C296.191,47.098 292.834,46.131 290.596,44.197 C288.357,42.264 287.238,39.891 287.238,37.078 C287.238,37.078 287.238,21.223 287.238,21.223 C287.238,21.223 284.637,21.223 284.637,21.223 C282.902,21.223 281.666,20.889 280.928,20.221 C280.189,19.553 279.820,18.680 279.820,17.602 C279.820,16.547 280.189,15.686 280.928,15.018 C281.666,14.350 282.902,14.016 284.637,14.016 C284.637,14.016 287.238,14.016 287.238,14.016 C287.238,14.016 287.238,7.512 287.238,7.512 C287.238,5.778 287.572,4.541 288.240,3.803 C288.908,3.064 289.781,2.695 290.859,2.695 C291.914,2.695 292.775,3.064 293.443,3.803 C294.111,4.541 294.445,5.778 294.445,7.512 C294.445,7.512 294.445,14.016 294.445,14.016 C294.445,14.016 307.770,14.016 307.770,14.016 C309.504,14.016 310.740,14.350 311.479,15.018 C312.217,15.686 312.586,16.559 312.586,17.637 C312.586,18.691 312.217,19.553 311.479,20.221 C310.740,20.889 309.504,21.223 307.770,21.223 C307.770,21.223 294.445,21.223 294.445,21.223 C294.445,21.223 294.445,35.672 294.445,35.672 C294.445,37.219 294.762,38.238 295.395,38.730 C296.379,39.504 298.137,39.891 300.668,39.891 C304.347,39.891 307.746,39.106 310.863,37.535 C312.059,36.926 312.996,36.621 313.676,36.621 C314.613,36.621 315.428,36.973 316.119,37.676 C316.810,38.379 317.156,39.235 317.156,40.242 C317.156,41.180 316.781,41.988 316.031,42.668 C314.883,43.770 312.615,44.783 309.229,45.709 ZM251.836,25.617 C256.617,26.274 259.945,26.930 261.820,27.586 C264.281,28.453 266.180,29.743 267.516,31.453 C268.852,33.164 269.520,34.969 269.520,36.867 C269.520,39.446 268.382,41.602 266.109,43.336 C262.851,45.844 258.621,47.098 253.418,47.098 C251.332,47.098 249.404,46.916 247.635,46.553 C245.865,46.189 244.242,45.656 242.766,44.953 C242.414,45.258 242.039,45.493 241.641,45.656 C241.242,45.820 240.832,45.902 240.410,45.902 C239.285,45.902 238.389,45.533 237.721,44.795 C237.053,44.057 236.719,42.821 236.719,41.086 C236.719,41.086 236.719,38.660 236.719,38.660 C236.719,36.926 237.053,35.689 237.721,34.951 C238.389,34.213 239.262,33.844 240.340,33.844 C241.207,33.844 241.933,34.084 242.520,34.564 C243.105,35.045 243.562,35.871 243.891,37.043 C244.992,37.981 246.316,38.690 247.863,39.170 C249.410,39.651 251.191,39.891 253.207,39.891 C256.512,39.891 259.078,39.375 260.906,38.344 C261.773,37.828 262.207,37.289 262.207,36.727 C262.207,35.789 261.586,35.016 260.344,34.406 C259.101,33.797 256.535,33.281 252.645,32.859 C246.855,32.250 242.988,31.078 241.043,29.344 C239.097,27.633 238.125,25.524 238.125,23.016 C238.125,20.438 239.215,18.293 241.395,16.582 C244.348,14.239 248.215,13.066 252.996,13.066 C254.660,13.066 256.260,13.225 257.795,13.541 C259.330,13.857 260.801,14.344 262.207,15.000 C262.652,14.672 263.068,14.426 263.455,14.262 C263.842,14.098 264.199,14.016 264.527,14.016 C265.512,14.016 266.332,14.385 266.988,15.123 C267.644,15.861 267.973,17.098 267.973,18.832 C267.973,18.832 267.973,20.590 267.973,20.590 C267.973,22.160 267.785,23.227 267.410,23.789 C266.660,24.867 265.640,25.406 264.352,25.406 C263.484,25.406 262.722,25.137 262.066,24.598 C261.410,24.059 260.988,23.344 260.801,22.453 C259.629,21.727 258.398,21.182 257.109,20.818 C255.820,20.455 254.473,20.273 253.066,20.273 C250.277,20.273 248.062,20.730 246.422,21.645 C245.695,22.043 245.332,22.477 245.332,22.945 C245.332,23.485 245.824,24.012 246.809,24.527 C247.558,24.903 249.234,25.266 251.836,25.617 ZM210.070,39.891 C212.742,39.891 216.293,39.317 220.723,38.168 C222.551,37.699 223.816,37.465 224.520,37.465 C225.480,37.465 226.289,37.805 226.945,38.484 C227.601,39.164 227.930,40.020 227.930,41.051 C227.930,41.988 227.578,42.786 226.875,43.441 C225.937,44.309 223.652,45.135 220.020,45.920 C216.386,46.705 212.894,47.098 209.543,47.098 C203.777,47.098 199.166,45.469 195.709,42.211 C192.252,38.953 190.523,34.946 190.523,30.187 C190.523,25.125 192.392,21.006 196.131,17.830 C199.869,14.654 204.176,13.066 209.051,13.066 C211.980,13.066 214.670,13.582 217.119,14.613 C219.568,15.645 221.391,16.758 222.586,17.953 C224.273,19.688 225.668,21.832 226.770,24.387 C227.519,26.168 227.895,28.231 227.895,30.574 C227.895,30.574 227.895,33.633 227.895,33.633 C227.895,33.633 198.328,33.633 198.328,33.633 C199.078,35.508 200.408,37.020 202.318,38.168 C204.228,39.317 206.812,39.891 210.070,39.891 ZM219.914,26.426 C218.812,24.364 217.371,22.822 215.590,21.803 C213.808,20.783 211.687,20.273 209.227,20.273 C206.789,20.273 204.679,20.783 202.898,21.803 C201.117,22.822 199.664,24.364 198.539,26.426 C198.539,26.426 219.914,26.426 219.914,26.426 ZM179.607,45.709 C176.220,46.635 173.367,47.098 171.047,47.098 C166.570,47.098 163.213,46.131 160.975,44.197 C158.736,42.264 157.617,39.891 157.617,37.078 C157.617,37.078 157.617,21.223 157.617,21.223 C157.617,21.223 155.016,21.223 155.016,21.223 C153.281,21.223 152.045,20.889 151.307,20.221 C150.568,19.553 150.199,18.680 150.199,17.602 C150.199,16.547 150.568,15.686 151.307,15.018 C152.045,14.350 153.281,14.016 155.016,14.016 C155.016,14.016 157.617,14.016 157.617,14.016 C157.617,14.016 157.617,7.512 157.617,7.512 C157.617,5.778 157.951,4.541 158.619,3.803 C159.287,3.064 160.160,2.695 161.238,2.695 C162.293,2.695 163.154,3.064 163.822,3.803 C164.490,4.541 164.824,5.778 164.824,7.512 C164.824,7.512 164.824,14.016 164.824,14.016 C164.824,14.016 178.148,14.016 178.148,14.016 C179.883,14.016 181.119,14.350 181.857,15.018 C182.596,15.686 182.965,16.559 182.965,17.637 C182.965,18.691 182.596,19.553 181.857,20.221 C181.119,20.889 179.883,21.223 178.148,21.223 C178.148,21.223 164.824,21.223 164.824,21.223 C164.824,21.223 164.824,35.672 164.824,35.672 C164.824,37.219 165.141,38.238 165.773,38.730 C166.758,39.504 168.516,39.891 171.047,39.891 C174.726,39.891 178.125,39.106 181.242,37.535 C182.438,36.926 183.375,36.621 184.055,36.621 C184.992,36.621 185.806,36.973 186.498,37.676 C187.189,38.379 187.535,39.235 187.535,40.242 C187.535,41.180 187.160,41.988 186.410,42.668 C185.262,43.770 182.994,44.783 179.607,45.709 ZM125.203,47.133 C119.601,47.133 115.242,45.973 112.125,43.652 C107.906,40.536 105.797,36.270 105.797,30.855 C105.797,25.723 107.507,21.475 110.930,18.111 C114.351,14.748 118.816,13.066 124.324,13.066 C126.316,13.066 128.168,13.254 129.879,13.629 C131.589,14.004 133.172,14.567 134.625,15.316 C135.492,14.496 136.383,14.086 137.297,14.086 C138.328,14.086 139.178,14.455 139.846,15.193 C140.514,15.932 140.848,17.157 140.848,18.867 C140.848,18.867 140.848,23.508 140.848,23.508 C140.848,25.243 140.514,26.473 139.846,27.199 C139.178,27.926 138.304,28.289 137.227,28.289 C136.242,28.289 135.410,28.008 134.730,27.445 C134.238,27.023 133.852,26.162 133.570,24.861 C133.289,23.561 132.609,22.594 131.531,21.961 C129.633,20.836 127.207,20.273 124.254,20.273 C120.855,20.273 118.131,21.270 116.080,23.262 C114.029,25.254 113.004,27.774 113.004,30.820 C113.004,33.633 113.988,35.854 115.957,37.482 C117.926,39.112 121.195,39.926 125.766,39.926 C128.765,39.926 131.215,39.621 133.113,39.012 C134.238,38.637 135.305,37.998 136.313,37.096 C137.320,36.194 138.234,35.742 139.055,35.742 C140.039,35.742 140.888,36.106 141.604,36.832 C142.318,37.559 142.676,38.414 142.676,39.398 C142.676,40.993 141.586,42.504 139.406,43.934 C136.172,46.066 131.437,47.133 125.203,47.133 ZM89.748,44.795 C86.713,46.330 83.543,47.098 80.238,47.098 C76.957,47.098 73.816,46.342 70.816,44.830 C67.816,43.318 65.531,41.262 63.961,38.660 C62.390,36.059 61.605,33.340 61.605,30.504 C61.605,27.621 62.402,24.791 63.996,22.014 C65.590,19.236 67.881,17.051 70.869,15.457 C73.857,13.863 76.980,13.066 80.238,13.066 C83.519,13.066 86.677,13.881 89.713,15.510 C92.748,17.139 95.039,19.330 96.586,22.084 C98.133,24.838 98.906,27.668 98.906,30.574 C98.906,33.340 98.138,36.018 96.604,38.607 C95.068,41.197 92.783,43.260 89.748,44.795 ZM89.203,24.211 C86.930,21.586 83.941,20.273 80.238,20.273 C76.980,20.273 74.262,21.317 72.082,23.402 C69.902,25.489 68.812,27.902 68.812,30.645 C68.812,32.895 69.914,34.998 72.117,36.955 C74.320,38.912 77.027,39.891 80.238,39.891 C83.473,39.891 86.191,38.912 88.395,36.955 C90.597,34.998 91.699,32.883 91.699,30.609 C91.699,28.289 90.867,26.157 89.203,24.211 ZM54.750,45.938 C54.750,45.938 46.312,45.938 46.312,45.938 C46.312,45.938 46.312,44.180 46.312,44.180 C44.672,45.141 42.955,45.867 41.162,46.359 C39.369,46.852 37.511,47.098 35.590,47.098 C30.176,47.098 25.816,45.533 22.512,42.404 C19.207,39.275 17.555,35.379 17.555,30.715 C17.555,25.840 19.289,21.680 22.758,18.234 C26.226,14.789 30.457,13.066 35.449,13.066 C37.324,13.066 39.164,13.354 40.969,13.928 C42.773,14.502 44.555,15.364 46.312,16.512 C46.312,16.512 46.312,7.547 46.312,7.547 C46.312,7.547 45.082,7.547 45.082,7.547 C43.347,7.547 42.111,7.213 41.373,6.545 C40.635,5.877 40.266,5.016 40.266,3.961 C40.266,2.883 40.635,2.010 41.373,1.342 C42.111,0.674 43.347,0.340 45.082,0.340 C45.082,0.340 53.520,0.340 53.520,0.340 C53.520,0.340 53.520,38.730 53.520,38.730 C53.520,38.730 54.750,38.730 54.750,38.730 C56.461,38.730 57.691,39.064 58.441,39.732 C59.191,40.400 59.566,41.274 59.566,42.352 C59.566,43.406 59.197,44.268 58.459,44.936 C57.721,45.604 56.484,45.938 54.750,45.938 ZM43.184,23.367 C41.097,21.305 38.543,20.273 35.520,20.273 C32.519,20.273 29.976,21.305 27.891,23.367 C25.804,25.430 24.762,27.914 24.762,30.820 C24.762,33.469 25.699,35.643 27.574,37.342 C29.449,39.041 32.097,39.891 35.520,39.891 C38.918,39.891 41.566,39.041 43.465,37.342 C45.363,35.643 46.312,33.504 46.312,30.926 C46.312,27.950 45.269,25.430 43.184,23.367 Z" id="path-2" class="cls-4" fill-rule="evenodd"/>
    <rect id="rect-1" class="cls-3" x="15" y="54" width="345" height="6" rx="3" ry="3"/>
  </g>
</svg>
